<svg width="506" height="49" viewBox="0 0 506 49" fill="none" xmlns="http://www.w3.org/2000/svg">
<path d="M0.397501 48H4.5775V9.8025L28.9425 48H33.1225V2.625H28.9425V40.8775L4.5775 2.625H0.397501V48ZM65.3942 48.88C68.3275 48.88 70.9675 48.2475 73.3142 46.9825C75.6792 45.7175 77.5492 43.9575 78.9242 41.7025C80.2992 39.4475 80.9867 36.8533 80.9867 33.92C80.9867 30.9683 80.2992 28.3742 78.9242 26.1375C77.5492 23.8825 75.6792 22.1225 73.3142 20.8575C70.9675 19.5925 68.3275 18.96 65.3942 18.96C62.4608 18.96 59.8117 19.5925 57.4467 20.8575C55.1 22.1225 53.2392 23.8825 51.8642 26.1375C50.4892 28.3742 49.8017 30.9683 49.8017 33.92C49.8017 36.8533 50.4892 39.4475 51.8642 41.7025C53.2392 43.9575 55.1 45.7175 57.4467 46.9825C59.8117 48.2475 62.4608 48.88 65.3942 48.88ZM65.3942 45.305C63.1942 45.305 61.2325 44.8192 59.5092 43.8475C57.7858 42.8758 56.4292 41.5375 55.4392 39.8325C54.4492 38.1092 53.9542 36.1383 53.9542 33.92C53.9542 31.7017 54.4492 29.74 55.4392 28.035C56.4292 26.3117 57.7858 24.9642 59.5092 23.9925C61.2325 23.0208 63.1942 22.535 65.3942 22.535C67.5942 22.535 69.5558 23.0208 71.2792 23.9925C73.0025 24.9642 74.3592 26.3117 75.3492 28.035C76.3392 29.74 76.8342 31.7017 76.8342 33.92C76.8342 36.1383 76.3392 38.1092 75.3492 39.8325C74.3592 41.5375 73.0025 42.8758 71.2792 43.8475C69.5558 44.8192 67.5942 45.305 65.3942 45.305ZM111.875 48.88C114.515 48.88 116.889 48.2383 118.997 46.955C121.106 45.6717 122.774 43.9025 124.002 41.6475C125.249 39.3925 125.872 36.8167 125.872 33.92C125.872 31.0417 125.258 28.475 124.03 26.22C122.801 23.965 121.124 22.1958 118.997 20.9125C116.889 19.6108 114.487 18.96 111.792 18.96C109.281 18.96 107.007 19.5558 104.972 20.7475C102.937 21.9392 101.342 23.5892 100.187 25.6975V0.699999H96.1723V48H100.187V42.06C101.379 44.1867 103.001 45.855 105.055 47.065C107.108 48.275 109.381 48.88 111.875 48.88ZM110.885 45.3875C108.776 45.3875 106.906 44.9017 105.275 43.93C103.643 42.94 102.36 41.5833 101.425 39.86C100.49 38.1367 100.022 36.1658 100.022 33.9475C100.022 31.7108 100.49 29.7308 101.425 28.0075C102.36 26.2658 103.643 24.9092 105.275 23.9375C106.906 22.9475 108.776 22.4525 110.885 22.4525C112.993 22.4525 114.854 22.9475 116.467 23.9375C118.099 24.9092 119.382 26.2658 120.317 28.0075C121.252 29.7308 121.72 31.7108 121.72 33.9475C121.72 36.1475 121.252 38.1092 120.317 39.8325C119.401 41.5558 118.126 42.9125 116.495 43.9025C114.863 44.8925 112.993 45.3875 110.885 45.3875ZM141.204 48H145.219V0.699999H141.204V48ZM175.748 48.88C178.553 48.88 181.102 48.275 183.393 47.065C185.703 45.855 187.527 44.1592 188.866 41.9775L185.896 40.3825C183.549 43.8292 180.222 45.5525 175.913 45.5525C173.677 45.5525 171.687 45.0758 169.946 44.1225C168.204 43.1508 166.838 41.8217 165.848 40.135C164.877 38.43 164.391 36.4867 164.391 34.305H189.746C189.782 34.1033 189.801 33.9292 189.801 33.7825C189.819 33.6358 189.828 33.4617 189.828 33.26C189.755 30.455 189.077 27.98 187.793 25.835C186.528 23.6717 184.805 21.985 182.623 20.775C180.46 19.565 177.985 18.96 175.198 18.96C173.163 18.96 171.247 19.345 169.451 20.115C167.672 20.885 166.105 21.9575 164.748 23.3325C163.392 24.7075 162.328 26.3117 161.558 28.145C160.788 29.96 160.403 31.9217 160.403 34.03C160.403 36.835 161.063 39.365 162.383 41.62C163.722 43.8567 165.546 45.6258 167.856 46.9275C170.166 48.2292 172.797 48.88 175.748 48.88ZM164.611 31.28C164.849 29.5017 165.454 27.9433 166.426 26.605C167.416 25.2483 168.672 24.1942 170.193 23.4425C171.715 22.6725 173.402 22.2875 175.253 22.2875C177.068 22.2875 178.727 22.6725 180.231 23.4425C181.734 24.2125 182.981 25.2758 183.971 26.6325C184.961 27.9892 185.575 29.5383 185.813 31.28H164.611ZM236.153 48.88C238.903 48.88 241.369 48.385 243.551 47.395C245.751 46.3867 247.483 44.9292 248.748 43.0225C250.032 41.1158 250.673 38.8058 250.673 36.0925C250.673 34.0025 250.297 32.2333 249.546 30.785C248.794 29.3367 247.767 28.1083 246.466 27.1C245.182 26.0733 243.725 25.1933 242.093 24.46C240.462 23.7083 238.757 23.0025 236.978 22.3425C235.567 21.8292 234.164 21.2608 232.771 20.6375C231.396 19.9958 230.25 19.1617 229.333 18.135C228.435 17.09 227.986 15.7058 227.986 13.9825C227.986 12.5708 228.325 11.2325 229.003 9.9675C229.682 8.68417 230.672 7.63916 231.973 6.8325C233.293 6.02583 234.888 5.6225 236.758 5.6225C238.995 5.6225 240.938 6.145 242.588 7.19C244.257 8.235 245.476 9.39 246.246 10.655L248.391 7.7675C247.767 6.79583 246.878 5.86083 245.723 4.9625C244.587 4.04583 243.257 3.29416 241.736 2.7075C240.214 2.1025 238.546 1.8 236.731 1.8C234.219 1.8 232.001 2.35916 230.076 3.4775C228.169 4.59583 226.675 6.08083 225.593 7.9325C224.53 9.76583 223.998 11.7825 223.998 13.9825C223.998 15.7425 224.319 17.2458 224.961 18.4925C225.621 19.7392 226.473 20.7933 227.518 21.655C228.563 22.5167 229.682 23.2408 230.873 23.8275C232.083 24.4142 233.238 24.9183 234.338 25.34C236.447 26.1283 238.408 26.9533 240.223 27.815C242.038 28.6583 243.496 29.7308 244.596 31.0325C245.714 32.3342 246.273 34.0667 246.273 36.23C246.273 38.155 245.815 39.7683 244.898 41.07C243.982 42.3717 242.762 43.3525 241.241 44.0125C239.737 44.6725 238.069 45.0025 236.236 45.0025C234.311 45.0025 232.615 44.7 231.148 44.095C229.682 43.4717 228.426 42.72 227.381 41.84C226.336 40.9417 225.474 40.0617 224.796 39.2C224.136 38.32 223.641 37.6233 223.311 37.11L220.918 40.19C221.212 40.685 221.725 41.4092 222.458 42.3625C223.21 43.2975 224.209 44.2692 225.456 45.2775C226.702 46.2675 228.206 47.12 229.966 47.835C231.744 48.5317 233.807 48.88 236.153 48.88ZM268.416 14.2025C269.149 14.2025 269.773 13.9458 270.286 13.4325C270.799 12.9192 271.056 12.2958 271.056 11.5625C271.056 10.8292 270.799 10.215 270.286 9.72C269.773 9.20666 269.149 8.95 268.416 8.95C267.683 8.95 267.059 9.20666 266.546 9.72C266.051 10.215 265.803 10.8292 265.803 11.5625C265.803 12.2958 266.051 12.9192 266.546 13.4325C267.059 13.9458 267.683 14.2025 268.416 14.2025ZM266.408 48H270.423V19.84H266.408V48ZM287.781 48H291.796V0.699999H287.781V48ZM318.318 48H320.958L334.653 19.84H329.951L319.638 42.28L309.353 19.84H304.651L318.318 48ZM360.858 48.88C363.663 48.88 366.211 48.275 368.503 47.065C370.813 45.855 372.637 44.1592 373.975 41.9775L371.005 40.3825C368.658 43.8292 365.331 45.5525 361.023 45.5525C358.786 45.5525 356.797 45.0758 355.055 44.1225C353.313 43.1508 351.948 41.8217 350.958 40.135C349.986 38.43 349.5 36.4867 349.5 34.305H374.855C374.892 34.1033 374.91 33.9292 374.91 33.7825C374.928 33.6358 374.938 33.4617 374.938 33.26C374.864 30.455 374.186 27.98 372.903 25.835C371.638 23.6717 369.914 21.985 367.733 20.775C365.569 19.565 363.094 18.96 360.308 18.96C358.273 18.96 356.357 19.345 354.56 20.115C352.782 20.885 351.214 21.9575 349.858 23.3325C348.501 24.7075 347.438 26.3117 346.668 28.145C345.898 29.96 345.513 31.9217 345.513 34.03C345.513 36.835 346.173 39.365 347.493 41.62C348.831 43.8567 350.655 45.6258 352.965 46.9275C355.275 48.2292 357.906 48.88 360.858 48.88ZM349.72 31.28C349.958 29.5017 350.563 27.9433 351.535 26.605C352.525 25.2483 353.781 24.1942 355.303 23.4425C356.824 22.6725 358.511 22.2875 360.363 22.2875C362.178 22.2875 363.837 22.6725 365.34 23.4425C366.843 24.2125 368.09 25.2758 369.08 26.6325C370.07 27.9892 370.684 29.5383 370.923 31.28H349.72ZM396.996 48.88C400.058 48.88 402.551 48.055 404.476 46.405C406.419 44.755 407.391 42.5183 407.391 39.695C407.391 38.045 407.052 36.7433 406.374 35.79C405.695 34.8183 404.742 34.0208 403.514 33.3975C402.285 32.7558 400.855 32.1325 399.224 31.5275C398.087 31.0875 397.024 30.6475 396.034 30.2075C395.062 29.7675 394.274 29.245 393.669 28.64C393.064 28.0167 392.761 27.2283 392.761 26.275C392.761 24.9733 393.238 23.9192 394.191 23.1125C395.163 22.3058 396.419 21.9025 397.959 21.9025C400.47 21.9025 402.569 23.0117 404.256 25.23L406.099 22.8925C404.999 21.6458 403.752 20.6833 402.359 20.005C400.984 19.3267 399.508 18.9875 397.931 18.9875C396.208 18.9875 394.668 19.3175 393.311 19.9775C391.954 20.6192 390.891 21.5083 390.121 22.645C389.351 23.7633 388.966 25.0467 388.966 26.495C388.966 27.925 389.324 29.1075 390.039 30.0425C390.772 30.9592 391.698 31.72 392.816 32.325C393.934 32.93 395.089 33.4708 396.281 33.9475C397.803 34.5342 399.086 35.0567 400.131 35.515C401.176 35.9733 401.964 36.5233 402.496 37.165C403.046 37.8067 403.321 38.6958 403.321 39.8325C403.321 41.6658 402.698 43.1142 401.451 44.1775C400.204 45.2408 398.71 45.7725 396.969 45.7725C395.245 45.7725 393.678 45.2775 392.266 44.2875C390.854 43.2792 389.709 41.8767 388.829 40.08L386.684 42.39C387.674 44.4617 389.058 46.0658 390.836 47.2025C392.614 48.3208 394.668 48.88 396.996 48.88ZM428.942 48.88C430.738 48.88 432.315 48.4583 433.672 47.615L432.654 44.425C431.847 45.03 430.894 45.3325 429.794 45.3325C427.466 45.3325 426.302 43.7283 426.302 40.52V22.865H433.314V19.84H426.302V9.3075H422.287V19.84H419.427V22.865H422.287V40.74C422.287 43.325 422.864 45.3325 424.019 46.7625C425.192 48.1742 426.833 48.88 428.942 48.88ZM447.947 48H451.962V29.41C451.962 28.2183 452.319 27.1 453.034 26.055C453.768 24.9917 454.712 24.13 455.867 23.47C457.04 22.81 458.268 22.48 459.552 22.48C460.963 22.48 462.265 22.7642 463.457 23.3325L465.107 19.95C463.732 19.29 462.155 18.96 460.377 18.96C456.582 18.96 453.777 20.6375 451.962 23.9925V19.84H447.947V48ZM490.924 48.88C493.729 48.88 496.277 48.275 498.569 47.065C500.879 45.855 502.703 44.1592 504.042 41.9775L501.072 40.3825C498.725 43.8292 495.397 45.5525 491.089 45.5525C488.852 45.5525 486.863 45.0758 485.122 44.1225C483.38 43.1508 482.014 41.8217 481.024 40.135C480.052 38.43 479.567 36.4867 479.567 34.305H504.922C504.958 34.1033 504.977 33.9292 504.977 33.7825C504.995 33.6358 505.004 33.4617 505.004 33.26C504.931 30.455 504.252 27.98 502.969 25.835C501.704 23.6717 499.981 21.985 497.799 20.775C495.636 19.565 493.161 18.96 490.374 18.96C488.339 18.96 486.423 19.345 484.627 20.115C482.848 20.885 481.281 21.9575 479.924 23.3325C478.567 24.7075 477.504 26.3117 476.734 28.145C475.964 29.96 475.579 31.9217 475.579 34.03C475.579 36.835 476.239 39.365 477.559 41.62C478.897 43.8567 480.722 45.6258 483.032 46.9275C485.342 48.2292 487.972 48.88 490.924 48.88ZM479.787 31.28C480.025 29.5017 480.63 27.9433 481.602 26.605C482.592 25.2483 483.847 24.1942 485.369 23.4425C486.891 22.6725 488.577 22.2875 490.429 22.2875C492.244 22.2875 493.903 22.6725 495.407 23.4425C496.91 24.2125 498.157 25.2758 499.147 26.6325C500.137 27.9892 500.751 29.5383 500.989 31.28H479.787Z" fill="#AA9A8D"/>
</svg>
