<svg width="79" height="48" viewBox="0 0 79 48" fill="none" xmlns="http://www.w3.org/2000/svg">
<path d="M0.397501 47H4.5775V8.8025L28.9425 47H33.1225V1.625H28.9425V39.8775L4.5775 1.625H0.397501V47ZM63.6875 47.88C66.4375 47.88 68.9033 47.385 71.085 46.395C73.285 45.3867 75.0175 43.9292 76.2825 42.0225C77.5658 40.1158 78.2075 37.8058 78.2075 35.0925C78.2075 33.0025 77.8316 31.2333 77.08 29.785C76.3283 28.3367 75.3016 27.1083 74 26.1C72.7166 25.0733 71.2591 24.1933 69.6275 23.46C67.9958 22.7083 66.2908 22.0025 64.5125 21.3425C63.1008 20.8292 61.6983 20.2608 60.305 19.6375C58.93 18.9958 57.7841 18.1617 56.8675 17.135C55.9691 16.09 55.52 14.7058 55.52 12.9825C55.52 11.5708 55.8591 10.2325 56.5375 8.9675C57.2158 7.68417 58.2058 6.63916 59.5075 5.8325C60.8275 5.02583 62.4225 4.6225 64.2925 4.6225C66.5291 4.6225 68.4725 5.145 70.1225 6.19C71.7908 7.235 73.01 8.39 73.78 9.655L75.925 6.7675C75.3016 5.79583 74.4125 4.86083 73.2575 3.9625C72.1208 3.04583 70.7916 2.29416 69.27 1.7075C67.7483 1.1025 66.08 0.799998 64.265 0.799998C61.7533 0.799998 59.535 1.35916 57.61 2.4775C55.7033 3.59583 54.2091 5.08083 53.1275 6.9325C52.0641 8.76583 51.5325 10.7825 51.5325 12.9825C51.5325 14.7425 51.8533 16.2458 52.495 17.4925C53.155 18.7392 54.0075 19.7933 55.0525 20.655C56.0975 21.5167 57.2158 22.2408 58.4075 22.8275C59.6175 23.4142 60.7725 23.9183 61.8725 24.34C63.9808 25.1283 65.9425 25.9533 67.7575 26.815C69.5725 27.6583 71.03 28.7308 72.13 30.0325C73.2483 31.3342 73.8075 33.0667 73.8075 35.23C73.8075 37.155 73.3491 38.7683 72.4325 40.07C71.5158 41.3717 70.2966 42.3525 68.775 43.0125C67.2716 43.6725 65.6033 44.0025 63.77 44.0025C61.845 44.0025 60.1491 43.7 58.6825 43.095C57.2158 42.4717 55.96 41.72 54.915 40.84C53.87 39.9417 53.0083 39.0617 52.33 38.2C51.67 37.32 51.175 36.6233 50.845 36.11L48.4525 39.19C48.7458 39.685 49.2591 40.4092 49.9925 41.3625C50.7441 42.2975 51.7433 43.2692 52.99 44.2775C54.2366 45.2675 55.74 46.12 57.5 46.835C59.2783 47.5317 61.3408 47.88 63.6875 47.88Z" fill="#AA9A8D"/>
</svg>
